<?xml version="1.0" standalone="no"?>
<!DOCTYPE svg PUBLIC "-//W3C//DTD SVG 1.1//EN"
"http://www.w3.org/Graphics/SVG/1.1/DTD/svg11.dtd">

<svg width="316" height="154" view_box="0 0 316 154"
xmlns="http://www.w3.org/2000/svg"
xmlns:link="http://www.w3.org/1999/xlink">\n\n<desc>Généré par Mocodo 2.3.7 le Thu, 13 Feb 2020 04:17:28</desc>

<rect id="frame" x="0" y="0" width="316" height="154" fill="#ffffbf" stroke="none" stroke-width="0"/>

<!-- Association related to -->
<line x1="49" y1="77" x2="158" y2="77" stroke="#f46d43" stroke-width="2"/>
<text x="94" y="94.0" fill="#4575b4" font-family="Verdana" font-size="12">1,1</text>
<line x1="267" y1="77" x2="158" y2="77" stroke="#f46d43" stroke-width="2"/>
<text x="200" y="94.0" fill="#4575b4" font-family="Verdana" font-size="12">0,N</text>
<g id="association-related to">
	<path d="M 181 52 a 14 14 90 0 1 14 14 V 77 h -74 V 66 a 14 14 90 0 1 14 -14" fill="#fdae61" stroke="#fdae61" stroke-width="0"/>
	<path d="M 195 77.0 v 11 a 14 14 90 0 1 -14 14 H 135 a 14 14 90 0 1 -14 -14 V 77.0 H 74" fill="#fee090" stroke="#fee090" stroke-width="0"/>
	<rect x="121" y="52" width="74" height="50" fill="none" rx="14" stroke="#f46d43" stroke-width="2"/>
	<line x1="121" y1="77" x2="195" y2="77" stroke="#f46d43" stroke-width="1"/>
	<text x="128" y="69.7" fill="#000000" font-family="Verdana" font-size="12">related to</text>
</g>

<!-- Entity CATEGORY -->
<g id="entity-CATEGORY">
	<g id="frame-CATEGORY">
		<rect x="227" y="18" width="80" height="25" fill="#abd9e9" stroke="#abd9e9" stroke-width="0"/>
		<rect x="227" y="43.0" width="80" height="93" fill="#e0f3f8" stroke="#e0f3f8" stroke-width="0"/>
		<rect x="227" y="18" width="80" height="118" fill="none" stroke="#74add1" stroke-width="2"/>
		<line x1="227" y1="43" x2="307" y2="43" stroke="#74add1" stroke-width="1"/>
	</g>
	<text x="233" y="35.7" fill="#000000" font-family="Verdana" font-size="12">CATEGORY</text>
	<text x="232" y="60.7" fill="#000000" font-family="Verdana" font-size="12">id</text>
	<line x1="232" y1="63" x2="244" y2="63" stroke="#000000" stroke-width="1"/>
	<text x="232" y="77.8" fill="#000000" font-family="Verdana" font-size="12">name</text>
	<text x="232" y="94.8" fill="#000000" font-family="Verdana" font-size="12">status</text>
	<text x="232" y="111.8" fill="#000000" font-family="Verdana" font-size="12">created_at</text>
	<text x="232" y="128.8" fill="#000000" font-family="Verdana" font-size="12">updated_at</text>
</g>

<!-- Entity TASK -->
<g id="entity-TASK">
	<g id="frame-TASK">
		<rect x="9" y="9" width="80" height="25" fill="#abd9e9" stroke="#abd9e9" stroke-width="0"/>
		<rect x="9" y="34.0" width="80" height="111" fill="#e0f3f8" stroke="#e0f3f8" stroke-width="0"/>
		<rect x="9" y="9" width="80" height="136" fill="none" stroke="#74add1" stroke-width="2"/>
		<line x1="9" y1="34" x2="89" y2="34" stroke="#74add1" stroke-width="1"/>
	</g>
	<text x="32" y="26.7" fill="#000000" font-family="Verdana" font-size="12">TASK</text>
	<text x="14" y="51.7" fill="#000000" font-family="Verdana" font-size="12">id</text>
	<line x1="14" y1="54" x2="26" y2="54" stroke="#000000" stroke-width="1"/>
	<text x="14" y="68.7" fill="#000000" font-family="Verdana" font-size="12">title</text>
	<text x="14" y="85.8" fill="#000000" font-family="Verdana" font-size="12">completion</text>
	<text x="14" y="102.8" fill="#000000" font-family="Verdana" font-size="12">status</text>
	<text x="14" y="119.8" fill="#000000" font-family="Verdana" font-size="12">created_at</text>
	<text x="14" y="136.8" fill="#000000" font-family="Verdana" font-size="12">updated_at</text>
</g>
</svg>